<?xml version="1.0" encoding="UTF-8"?>
<svg id="Layer_2" data-name="Layer 2" xmlns="http://www.w3.org/2000/svg" viewBox="0 0 775.96 500">
  <defs>
    <style>
      .cls-1 {
        fill: #f2f2ed;
      }

      .cls-1, .cls-2, .cls-3, .cls-4, .cls-5, .cls-6, .cls-7, .cls-8, .cls-9, .cls-10, .cls-11, .cls-12, .cls-13, .cls-14, .cls-15, .cls-16, .cls-17, .cls-18, .cls-19, .cls-20, .cls-21, .cls-22, .cls-23, .cls-24, .cls-25, .cls-26, .cls-27, .cls-28, .cls-29, .cls-30, .cls-31, .cls-32, .cls-33, .cls-34, .cls-35, .cls-36, .cls-37, .cls-38, .cls-39, .cls-40, .cls-41, .cls-42, .cls-43, .cls-44, .cls-45, .cls-46, .cls-47, .cls-48, .cls-49, .cls-50, .cls-51, .cls-52, .cls-53, .cls-54, .cls-55, .cls-56, .cls-57, .cls-58, .cls-59, .cls-60, .cls-61, .cls-62, .cls-63, .cls-64, .cls-65, .cls-66, .cls-67, .cls-68, .cls-69, .cls-70, .cls-71, .cls-72, .cls-73, .cls-74, .cls-75, .cls-76, .cls-77, .cls-78, .cls-79, .cls-80, .cls-81, .cls-82, .cls-83, .cls-84, .cls-85, .cls-86, .cls-87, .cls-88, .cls-89, .cls-90, .cls-91, .cls-92, .cls-93, .cls-94, .cls-95, .cls-96, .cls-97, .cls-98, .cls-99, .cls-100, .cls-101, .cls-102, .cls-103, .cls-104, .cls-105, .cls-106, .cls-107, .cls-108, .cls-109, .cls-110 {
        stroke-width: 0px;
      }

      .cls-2 {
        fill: #5f97aa;
      }

      .cls-3 {
        fill: #61423b;
      }

      .cls-4 {
        fill: #72737c;
      }

      .cls-5 {
        fill: #4f5f6b;
      }

      .cls-6 {
        fill: #264b83;
      }

      .cls-7 {
        fill: #274480;
      }

      .cls-8 {
        fill: #262a43;
      }

      .cls-9 {
        fill: #4d5353;
      }

      .cls-10 {
        fill: #292b42;
      }

      .cls-11 {
        fill: #2e4e7c;
      }

      .cls-12 {
        fill: #2e5287;
      }

      .cls-13 {
        fill: #2f4b84;
      }

      .cls-14 {
        fill: #2d528b;
      }

      .cls-15 {
        fill: #383042;
      }

      .cls-16 {
        fill: #38508a;
      }

      .cls-17 {
        fill: #33568e;
      }

      .cls-18 {
        fill: #33558d;
      }

      .cls-19 {
        fill: #39475d;
      }

      .cls-20 {
        fill: #3c4064;
      }

      .cls-21 {
        fill: #1b457c;
      }

      .cls-22 {
        fill: #18213d;
      }

      .cls-23 {
        fill: #19355d;
      }

      .cls-24 {
        fill: #3e4243;
      }

      .cls-25 {
        fill: #363146;
      }

      .cls-26 {
        fill: #0e3d79;
      }

      .cls-27 {
        fill: #1d2c48;
      }

      .cls-28 {
        fill: #403a46;
      }

      .cls-29 {
        fill: #152756;
      }

      .cls-30 {
        fill: #151e49;
      }

      .cls-31 {
        fill: #233757;
      }

      .cls-32 {
        fill: #222b4f;
      }

      .cls-33 {
        fill: #23334a;
      }

      .cls-34 {
        fill: #23467e;
      }

      .cls-35 {
        fill: #202c43;
      }

      .cls-36 {
        fill: #202b47;
      }

      .cls-37 {
        fill: #20284d;
      }

      .cls-38 {
        fill: #223455;
      }

      .cls-39 {
        fill: #243a7d;
      }

      .cls-40 {
        fill: #244881;
      }

      .cls-41 {
        fill: #23457e;
      }

      .cls-42 {
        fill: #23457d;
      }

      .cls-43 {
        fill: #1f2643;
      }

      .cls-44 {
        fill: #20427c;
      }

      .cls-45 {
        fill: #1f3254;
      }

      .cls-46 {
        fill: #1e3447;
      }

      .cls-47 {
        fill: #1e3d74;
      }

      .cls-48 {
        fill: #172e4d;
      }

      .cls-49 {
        fill: #213455;
      }

      .cls-50 {
        fill: #21324d;
      }

      .cls-51 {
        fill: #161c55;
      }

      .cls-52 {
        fill: #25334c;
      }

      .cls-53 {
        fill: #c5572d;
      }

      .cls-54 {
        fill: #c3bb94;
      }

      .cls-55 {
        fill: #c7cca1;
      }

      .cls-56 {
        fill: #d0c8b6;
      }

      .cls-57 {
        fill: #c9c29e;
      }

      .cls-58 {
        fill: #c9c4a0;
      }

      .cls-59 {
        fill: #ccc9aa;
      }

      .cls-60 {
        fill: #c4c8a2;
      }

      .cls-61 {
        fill: #d7d4c0;
      }

      .cls-62 {
        fill: #b05128;
      }

      .cls-63 {
        fill: #b05938;
      }

      .cls-64 {
        fill: #c5bb9b;
      }

      .cls-65 {
        fill: #c5c3a5;
      }

      .cls-66 {
        fill: #ad5937;
      }

      .cls-67 {
        fill: #d3cc9d;
      }

      .cls-68 {
        fill: #bdc3ad;
      }

      .cls-69 {
        fill: #bbb88e;
      }

      .cls-70 {
        fill: #a83037;
      }

      .cls-71 {
        fill: #a82f3a;
      }

      .cls-72 {
        fill: #a74a1d;
      }

      .cls-73 {
        fill: #b35829;
      }

      .cls-74 {
        fill: #b3552c;
      }

      .cls-75 {
        fill: #d8d7c8;
      }

      .cls-76 {
        fill: #b3592b;
      }

      .cls-77 {
        fill: #a8582f;
      }

      .cls-78 {
        fill: #b26036;
      }

      .cls-79 {
        fill: #b1582d;
      }

      .cls-80 {
        fill: #b1582c;
      }

      .cls-81 {
        fill: #b1532a;
      }

      .cls-82 {
        fill: #b1572b;
      }

      .cls-83 {
        fill: #be5027;
      }

      .cls-84 {
        fill: #be5727;
      }

      .cls-85 {
        fill: #a9512f;
      }

      .cls-86 {
        fill: #b2562a;
      }

      .cls-87 {
        fill: #b25220;
      }

      .cls-88 {
        fill: #cec997;
      }

      .cls-89 {
        fill: #cdce9a;
      }

      .cls-90 {
        fill: #cdc6b5;
      }

      .cls-91 {
        fill: #ba5125;
      }

      .cls-92 {
        fill: #8b4c2e;
      }

      .cls-93 {
        fill: #b75632;
      }

      .cls-94 {
        fill: #b5b3a0;
      }

      .cls-95 {
        fill: #b75832;
      }

      .cls-96 {
        fill: #b54c17;
      }

      .cls-97 {
        fill: #314f85;
      }

      .cls-98 {
        fill: #32558d;
      }

      .cls-99 {
        fill: #32558e;
      }

      .cls-100 {
        fill: #7c826b;
      }

      .cls-101 {
        fill: #a0323b;
      }

      .cls-102 {
        fill: #a03631;
      }

      .cls-103 {
        fill: #a22b3a;
      }

      .cls-104 {
        fill: #9198a6;
      }

      .cls-105 {
        fill: #f1f0eb;
      }

      .cls-106 {
        fill: #fefdfd;
      }

      .cls-107 {
        fill: #eeeee5;
      }

      .cls-108 {
        fill: #eeeee6;
      }

      .cls-109 {
        fill: #f0f0e9;
      }

      .cls-110 {
        fill: #f5f5f1;
      }
    </style>
  </defs>
  <g id="Layer_1-2" data-name="Layer 1">
    <path class="cls-96" d="M699.09,335.42c-.44-.16-1.2-.23-1.26-.48-.25-1.02.68-1.23,1.36-1.58.81.73,1.08,1.43-.1,2.06Z"/>
    <g>
      <path class="cls-59" d="M302.86,14.94c12.35,1.83,23.77,6.58,35.03,11.62,2.61,1.17,5.06,2.1,7.82,2.39.5.57.69,1.23.63,1.98-2.84,4.56-7.19,7.69-11.01,11.28-3.56,3.34-6.41,6.99-8.54,11.37-4.98,10.23-4.18,14.57,4.52,22.44,3.47,5.4,5.7,11.05,3.5,17.58-.58,9.33-6.92,18.3-1.7,27.98.82,4.83,1.07,9.83,4.33,13.9.47,1.06.73,2.18.87,3.32.34,3.31-.16,6.75,1.5,9.87,1.4,3.54,3.52,6.77,4.59,10.45,4.15,16.04,6.91,32.39,10.97,48.45,2.23,8.82,6.06,16.73,11.79,23.75,3.87,4.74,8.62,6.68,14.85,5.55,9.38-1.7,18.27-4.61,26.5-9.41,4.4-2.57,6.91-6.07,4.5-11.41-1.21-2.69-.98-5.38-.35-8.21,3.98-17.88,5.47-36.25,10.61-53.9.06-.74.2-1.48.37-2.2.53-2.12,1.83-3.8,3.12-5.48,1.49-1.84,1.41-4.15,1.83-6.3.15-.63.37-1.23.63-1.82,1.01-2.02,2.06-4.03,2.74-6.2.81-2.23.6-4.72,1.72-6.86.86-1.18,1.92-1.95,3.43-1.71.25.09.4.42.69.55-.5-.46-.93-.97-1.37-1.52-1.23-4.32-1.25-8.9-3.33-12.98-.73-2.71-.75-5.49-.85-8.27-1.16-6.04-.85-11.89,2.24-17.38,5.84-4.43,10-10.82,16.66-14.3,4.66,1.66,6.47,6.31,10.3,9.88,3.57-3.61,6.37-7.63,8.21-12.33.84-2.15,1.66-4.49.04-6.56-1.78-2.27-4.19-1.08-6.39-.66-2.72.52-5.16,2.35-8.12,1.73-.7-.31-1.53-.69-1.75-1.36-3.44-10.35-7.24-20.53-12.73-30.01,12.94-7.07,27.83-6.13,41.74-9.71-5.12,2.45-10.24,4.89-15.35,7.37-2.09,1.02-4.42,2.16-3.3,5.07,1.12,2.91,3.27,1.25,5.12.73,4.48-1.25,7.83-.99,10.42,4.09,2.14,4.19,8.17,3.45,11.78,6.26.36,1.4-.07,2.08-1.6,1.72-4.42-1.73-9.03-1.79-13.67-1.64-1.81,1.47-1.31,3-.12,4.54,14.08,10.06,23.85,23.74,31.6,38.84,4.96,9.66,6.04,19.63-2.55,28.4-4.31.19-3.96-7.3-9.2-5.58-1.15-.52.47-4.99-3.16-2.11-1.09.86-2.82.9-4.26,1.28-1.39.32-2.79.35-4.18.06-2.48-.39-4.51-2-7.31-2.8-.47-.31.25.43.47.44,1.62.05,2.34,1.6,3.46,2.56,7.46,9.69,12.12,20.67,15.03,32.47.16,2.49-.28,4.73-2.59,6.18-7.03-3.02-7.75-10.34-10.9-16.01-.35-2.28,1.48-6.05-3.53-5.12-4.25-.37-2.56,2.43-2.33,4.44,8.11,23,5.53,45.24-4.65,66.95-13.83,10.18-16.67,27.75-27,40.3-1.13,1.37-1.92,3.02-3.2,4.27-1.29,1.26-2.77,2.68-4.66,1.66-2.65-1.43-1.18-3.41-.22-5.34-.66.57-.92,1.26-1.26,1.87-1.52,2.79-2.61,7.49-6.5,5.8-3.31-1.44-.27-5.33.22-8.51-6.92,6.82-11.46,15.01-16.78,22.61-2,2.85-1.9,6.29-1.19,9.62,1.17,5.54,1.01,11.16.8,16.75-.09,2.48.06,5.87-3.07,6.25-3.53.43-3.31-3.09-3.8-5.49-.39-1.96-.26-4.06-2.5-6.75-1.8,20.47-14.18,36.37-18.74,55.13-1.09,4.47-2.19,8.88-2.59,13.47-.17,2-.39,4.46-2.87,4.84-3.11.47-3.58-2.37-4.21-4.46-1.33-4.39-2.95-8.82-2.69-13.43.62-11.16,1.39-22.31,2.25-33.18-1.41,1.43-2.38,4.92-5.69,3.53-2.24-.95-1.51-3.62-1.34-5.53.93-10.75-1.55-21.32-1.44-32,.05-5.39-4.54-7.71-6.62-11.64-1.09-2.49-2.01-5.08-4.08-7.01-1.35-1.4-1.77-3.74-4.18-4.01-3.37,1.21-5.72-.95-8.27-2.48-9.2-9.88-18.94-19.25-27.17-30.02-11.2-16.48-18.89-34.29-20.6-54.5-3.26,9.61-3.45,19.36-2.84,29.21.14,2.35,1.34,5.61-2.23,6.35-2.95.61-4.55-2-5.68-4.27-5.29-10.64-8.24-21.95-8.69-33.81-.46-12.24-.38-24.48,2.83-36.45.39-2.98,1.59-5.62,3.38-7.94.26-.31.78-.73.75-.78-.49-.9.62.21-.44.27-1.27,1.26-2.03,2.79-2.89,4.26-4.15,6.23-8.67,12.18-11.63,19.17-1.37,3.23-3.68,6.18-8.12,4.2-2.55-1.67-2.42-3.9-1.63-6.51,1.39-4.6,2.49-9.28,3.81-13.9.5-1.76,1.1-4.7-.26-4.88-6.71-.85-3.32-5.41-2.01-6.99,6.57-7.9,7.76-17.81,10.81-26.97,2.95-8.85,9.31-15.54,13.6-23.5.86-1.33,1.49-2.99.28-4.07-.89-.8-2.34.19-3.4.9-7.94,3.75-12.48,11.14-18.37,17.09l-.12-.1c2.95-12.02,10.69-20.87,19.2-29.25,1.71-1.68,4.67-3.09,3.49-6.13-1.05-2.72-4.31-.34-7.11-2.93,10.4-2.07,17.96-10.02,28.84-9.29,2.02.14,5.2,1.3,5.84-1.74.61-2.9-2.56-3.22-4.54-4.12-1.38-.62-2.79-1.15-4.19-1.72-.41-.32-.56-.64-.44-.97.12-.34.25-.51.39-.51Z"/>
      <path class="cls-49" d="M279.83,120.52c-4.55,22.31-5.18,44.41,3.43,66.03,2.09,5.26,2.08,5.29,7.16,10.11-2.88-14.96-2.12-28.49,4.54-43.28,1.74,11.23,3.27,20.62,6.05,29.77,3.6,11.87,10.83,21.76,16.53,32.48,5.23,27.04,11.33,53.81,23.83,78.66,1.07,2.14,3.05,4.95.52,6.88-2.44,1.87-4.68-.74-6.75-2.06-1.93-1.23-3.66-2.76-5.4-4.17-3.05.42-.28,2.05-.59,3.01,5.94,16.94,11.19,34.01,11.61,52.15-.2.75-.6,1.4-1.17,1.92-3.76,1.16-4.8-1.89-6.27-4.15-2.46-3.81-4.18-8.11-8.1-12.14-1.17,5.46.21,9.86,1.24,14.44,2.07,9.22,8.72,16.71,9.67,26.31-.38,1.58-1.3,2.83-2.41,3.97-3.98,3.94-2.84,8.83-2.22,13.43.71,5.22,1.27,10.39.8,15.65-.18,1.27-.6,2.45-1.38,3.48-7.71,2.3-17.38-2.04-20.79-9.32,4.22-3.09,6.67-7.26,7.56-12.38,2.03-2.86,1.84-5.79.29-8.77.41-12.98-8.31-18.63-18.52-23.08-.89-1.87-2.28-2.54-4.26-1.75-15.77-6.41-32.28-9.78-49.2-12.05,4.69,5.52,11.14,7.6,17.89,9.95-1.91.95-68.1-8.27-74.24-9.93-3.01-1.65-6.1-1.14-9.21-.35-9.37-.35-18.74-.7-28.12-1.05,2.01-3,5.77-1.68,8.29-3.39,1.87-1.51,5.19-2.64,3.74-5.61-1.19-2.42-4.09-.81-6.23-.46-1.99.32-3.91,1.03-5.92,1.24-2.56.27-5.34.46-6.3-2.66-.89-2.89.84-5.46,3.27-6.03,5.63-1.33,6.35-5.32,6.6-9.91,4.16-.73,8.31-1.45,12.47-2.18,6.69,1.05,13.19.25,19.53-2.03,17.11-3.64,34.01-7.92,50.16-14.89,10.61-4.58,20.2-10.56,29.05-17.93,9.13-7.61,6.43-17.98,5.42-27.06-2.51-22.49-6.76-44.79-9.75-67.23-2.01-15.12-4.71-30.22-3.99-45.6,3.91-.88,5.99-3.11,7.53-7.07,2.63-6.74,6.98-12.65,11.94-17.99,1.86,1.25.16,3.68,1.68,5.04Z"/>
      <path class="cls-49" d="M495.05,110.98c6.9-5.7,6.64,2.98,9.76,4.86.2,4.1,1.6,7,5.43,9.56,5.1,3.4-4.15,4.21-2.21,7.63-.64.33-2.18-.54-1.73,1.25,6.97,27.45-5.64,52.83-8.34,79.25-2.68,26.28-5.81,52.64,1.95,78.73,1.43,4.79,4.36,7.62,8.36,10.25,22.62,14.87,47.74,22.02,74.37,24.77,1.73.18,3.41.83,5.11,1.27,1.8,1.69,5.45.66,5.84,4.66.28,2.85,3.33,2.55,5.55,2.93,3.01.51,6.91.81,7.09,4.47.22,4.31-3.97,4.51-7.18,5.15-1.22.24-2.56.04-3.71,1.08-1.09,3.59,5.59,4.95,2.85,9.1-15.81-1.17-31.71-.78-47.46-2.87-8.14-.76-16.28-1.76-24.35.5-18.13,4.59-34.02,14.14-50.42,22.61-2.27,1.17-6.3,4.34-7.07,2.23-1.09-3.01-7.25-6.56.92-11.11-16.1,3.67-22.07,11.52-21.02,25.22.57,7.46,6.38,7.81,11.65,8.14,10.93.68,21.85-.11,32.74-1.13.14,8.21-5.99,12.85-11.19,17.13-7.61,6.27-16.21,11.4-24.66,16.59-5.2-1.57-1.9-7.61-5.33-10.1-1.43-.73-2.85-.65-4.27.02-1.37.77-2.42,1.89-3.35,3.13-1.54,2.24-3.09,4.47-4.96,6.45-1.92,2-3.31,4.47-5.37,6.3-1.8,1.59-3.79,3.81-6.25.72.84-9.81,4.73-19.12,4.71-29.06.06-1.14.26-2.27.55-3.37.69-2.05,1.05-4.17,1.3-6.32.09-.68.24-1.35.42-2.01.76-2.85,1.71-5.73-1.29-7.98-1.01-.61-.87-2.01-1.84-2.64-.78,1.48-2.26,2.76-1.35,4.74-.22,2.2-1.78,3.04-3.63,3.59-.8.06-1.54-.12-2.24-.53-.99-.77-1.58-1.78-1.79-3.01,3.27-20.18,6.83-40.29,12.94-59.84,1.9-3.35-1.53-3.51-2.96-4.89-1.62-3.43.08-6.53,1.15-9.57,3.71-10.58,7.21-21.22,10.21-32.03,1.03-3.72,2.82-7.07,4.86-10.33,12.19-19.48,17.95-40.89,18.66-63.71.15-4.85.66-9.57,2.11-14.19,6.53-13.97,9.32-28.71,9.62-44.09.17-8.84-4.77-16.45-5.09-25.08,1.81-.43,3.68-.45,5.49-.89,1.98.15,3.27,1.09,3.58,3.13,3.04,5.63,6.09,11.26,9.13,16.89.63.35,1.1.85,1.4,1.5.17,1.1.73,2.22-.04,3.19.13-4,2.05-7.79.6-11.75-3.77-11.29-8.46-22.12-15.55-31.78,1.11-1.97,2.63-2.72,4.78-1.6,1.51.06,3.02.12,4.52.18,2.79-.33,5.65-.85,6.99,2.65Z"/>
      <path class="cls-49" d="M220.13,398.8c6.18-3.01,12.43-.49,18.65-.27.51,0,1.26-.05,1.42.28,6.72,13.31,19.88,12.2,31.65,14.17,2.57.91,5.3.91,7.95,1.35,10.25,3.04,20.51,6.07,29.3,12.52,1.45,1.67,3.26,2.58,5.51,2.6,12.28,5.6,23.19,13.17,32.61,22.85,1.24,1.27,2.6,2.79,2.62,4.54.09,10.68,8.82,12.53,16.06,15.52,5.11,2.11,10.82,2.6,16.1,4.37,3.61,1.21,6.47,2.95,1.94,6.68-23.48,1.22-45.86,8.56-68.83,12.37-38.48,6.38-77.04,7.33-113.68-9.95-7.61-3.59-14.7-8.21-20.99-13.76-4-3.52-6.09-4.32-6.39,2.32-10.35-9.07-11.55-15.08-8.09-32.83-.77-1.72-5.85,4.68-3.86-1.95,1.7-5.64,5.08-10.41,8.89-14.88,1.77-2.07,3.32-4.34,5.14-6.75-4.03-2.87-6.85,1.52-10.16.95,4.26-9.11,24.02-17.44,46.63-19.66,2.57.8,5.13,1.46,7.54-.45Z"/>
      <path class="cls-49" d="M581.5,393.03c-.41,1.83.57,2.36,2.12,3.24,12.26,7.02,20.72,17.57,26.98,30.03,2.38,4.73-.7,10.44-5.84,11.08-3.14.39-1.47,2.43-1.39,3.98.7,14.32-7.71,24.53-15.79,34.88-.42.53-1.52,1.16-1.95.96-7.66-3.47-11.54,3.51-16.95,6.1-14.88,7.11-30.66,10.1-47.02,10.52-5.08-.99-10.16-.99-15.24,0-19.4.04-38.79.12-58.19.07-2.22,0-4.43-.73-6.65-1.12,5.88-4.71,11.97.82,17.52-.99-1.45-.35-3.48.01-5.44-.08-2.02-.1-4.27.25-4.76-2.58-.4-2.3.79-3.93,2.47-5.24,2.49-1.94,5.49-2.7,8.49-3.27,6.02-1.16,11.85-2.92,16.92-4.99-6.73.4-14.04,1.03-21.18,3.14-2.41.71-5.38.22-6.49-2.68-1.1-2.87.49-5.62,3.03-6.16,14.76-3.17,26.11-13.1,39.3-19.32,2.98-1.41,6.23-2.25,8.84-4.38,4.43-3.9,10.07-5.78,14.96-8.97,10.43-6.82,16.64-16.77,21.8-27.64,2.63-3.48,3.48-6.9-.33-10.18-1-1.76-1.27-3.49.28-5.11,4.1-.34,8.21-.67,12.31-1.01,2.14.92,4.39.28,6.59.49.27.03.51.17.79.14-.59-.35-1.34-.48-1.73-1.14,3-1.68,6.2-2.61,9.66-2.53,5.49,1.77,11.85-1.74,16.9,2.77Z"/>
      <path class="cls-82" d="M41.28,357.83c10.54-6.37,19.18-14.33,25.53-25.28,5.92-10.21,7.43-9.95,18.59-6.27,3.06,1.48,5.12,3.99,6.6,6.92,1.61,3.19,4.52,4.49,7.51,5.8,4.05,2.22,4.92,5.94,4.91,10.15,0,5.22.17,10.44-.58,15.63-.03.81-.17,1.6-.4,2.37-1.88,3.17-.5,6.96-1.95,10.21-.98,2.06-1.09,4.42-2.14,6.46-3.96,18.91-11.91,36.62-16.58,55.32-.78,3.12-2.03,6.86-4.35,8.73-10.44,8.42-17.16,21.56-31.64,24.97-3.38.8-6.62,2.69-9.61,4.59-3.66,2.33-6.74,4.41-7.77-2.16-.1-.63-1.1-1.72-1.34-1.63-7.24,2.65-13.35-3.79-20.34-2.48-2.78.52-6.15,1.71-7.48-1.26-1.2-2.68,2.22-4.17,4-5.83,5.5-5.09,12.73-7.39,18.88-11.43,4.03-2.64,8.11-5.31,11.69-8.5,7.2-6.42,6.12-11.92-2.51-16.55-4.89-2.62-10.4-2.19-15.48-3.77-2.4-.75-5.08-.62-6.6-3.14.6-1.57-.15-3.2.23-4.78.77-7,1.24-13.86-.24-21-.73-3.53,1.01-8.51,3.34-11.52,3.82-4.93,7.57-9.4,7.24-16.09-.13-2.52,1.87-3.22,4.09-3.55,5.82-.87,10.98-3.63,16.31-5.88.74.72,1.79.64,2.65,1.04-.77-.57-1.89-.32-2.58-1.07Z"/>
      <path class="cls-82" d="M673.26,328.65c4.35-.76,7.87,1.35,11.31,3.44,10.5,6.39,21.4,11.26,34.13,10.64,2.85-.14,6.15-.21,8.22,2.7-1.5,1.14-3.54.96-5.04,2.12,1.56-.98,3.54-.94,5.01-2.15,5.27,3.37,9.91,7.46,13.99,12.2,1.91,5.29,2.1,10.05-3.92,12.94-7.61-1.44-14.4-4.72-20.55-9.36-4.06-3.06-8.18-3.89-12.6-.88-3.86,1.96-2.22,4.35-.51,6.73.68,1.98,1.06,4.02,1.25,6.11-.08,1.5-.73,2.69-1.97,3.54-2.6,1.36-.57,3.68-.9,4.53.13-.53-.71-2.09.11-3.52.96-2.65,2.78,3.24,3.66-.37,3.11-.16,4.24,2.33,5.69,4.3,1.79,2.43,3.41,4.98,5.1,7.48,5.34,7.9,16.19,11.13,22.16-.61,5.3-.36,7.18-3.22,6.29-8.33-.39-2.22-.66-4.52.2-6.74,1.2-1.31,2.49-1.35,3.85-.28,3.86,8.75,1.22,17.82,1.05,26.72-.11,5.49-2.17,6.08-8.24,3.55,1.85,1.3,3.83,2.07,5.39,3.48-4.68,3.01-9.46,5.87-14,9.07-5.9,4.16-5.78,10.64-.15,15.14,9.37,7.49,19.41,13.79,30.57,18.28,5.88,2.36,10.44,6.2,12.61,12.4-.61.82.21-.16-.18.72-.29.64-4.01,1.78.03,2.43-4.85.66-9.91.47-11.53,7.11-.4,1.64-4.13.18-6.33-.39-4.77-1.24-9.51-3.67-14.2.77-1.76,1.66-4.3.32-6.46-.58-3.95-1.66-7.92-3.33-12-4.64-23.56-7.58-37.94-24.4-46.43-46.75-1.63-4.28-5.79-7.18-5.85-12.08-1.9-2.19-2.53-5.21-4.73-7.21-4.3-11.38-9.04-22.56-13.94-33.69-1.36-3.08-3.14-6.64-.09-9.97.92-.61,1.93-.77,2.97-.53.64.03.65.96,1.32,1.02.06-.86-.67-1.43-.85-2.24-.51-1.62-.97-3.22-.71-4.93.17-.66.43-1.29.77-1.88,2.09-3.02,1.04-6.55,1.59-9.82.38-2.15,1.28-3.92,3.47-4.7,1.53.24,3.2.62,2.24-2,.78-2.62,2.88-3.31,5.24-3.65.99-.05,1.98-.06,2.98-.11Z"/>
      <path class="cls-43" d="M501.81,446.75c-.19,3.21-3.11,3.09-5.03,3.79-8.1,2.94-15.81,6.21-21.7,13.04-3.88,4.5-10.58,2.79-15.48,5.48-1.53.84-3.32,1.25-5.03,1.71-2.3.62-4.92,1.35-4.41,4.23.57,3.17,4.18,2.82,5.62,1.95,7.19-4.34,15.45-1.58,22.87-3.99,1.53-.5,3.36-.07,5.25.62-5.71,4.65-12.59,6.43-19.47,8.18-3.66.93-7.37,1.73-10.97,2.85-1.98.62-3.85,1.95-3.28,4.43.53,2.32,2.74,1.7,4.44,1.91,2.44.3,5.04-.75,8.95,1.82-8.41,0-15.2,0-22,0-19.5-1.33-38.64-4.92-57.64-9.37,1.65-2.97,1.02-4.05-2.56-4.98-9.67-2.53-19.8-3.74-28.24-10.14-3.22-2.44-5.85-3.81-4.66-8.75,1.2-4.97-3.74-7.93-6.65-10.33-7.92-6.51-16.74-11.92-25.27-17.67-.73-.49-1.98-.21-2.99-.29-.88-1.65-.12-3.03.73-4.39,3.36-3.84,7.13-2.94,11.06-1.03,8.69,4.22,17.3,8.6,25.83,13.13,10.58,5.62,21.8,9.65,33.06,13.6,5.12,2.82,10.62,4.17,16.45,4.25.62.38,1.18.85,1.66,1.4,4.9,4.68,10.72,5.37,16.97,3.8,6.21-1.57,11.96-4.29,17.54-7.38,9.49-5.45,19.37-10.21,28.44-16.35,3.69-2.5,6.45-1.44,9.69.76,5.36,3.63,9.83,8.98,16.99,9.32,1.34-.4,2.6-.98,3.86-1.57,1.99-.66,3.98-2.06,5.97-.01Z"/>
      <path class="cls-82" d="M383.63,453.98c-21.14-5.2-39.35-16.92-58.58-26.36-3.58-1.76-6.86-3.6-9.98.54-2.01,1.4-4.05,1.7-6.12.13-9.14-5.39-19.13-8.8-29.06-12.33-2.39-1.86-5.47.13-7.91-1.44-9.12-1.48-18.87.56-27.02-6.2-3.38-2.8-2.27-7.76-6.18-9.78,3.92-4.14-1.09-6.78-1.71-10.16.15-1.06,1.01-2.24-.15-3.12-.54-.41-1.1.42-1.67.65-1.47-4.72,3.43-14.05,8.15-14.3,3.12-.16,4.25-1.25,5.66-3.71,3.11-5.46,7.71-6.22,12.49-1.88,2.78,2.53,5.44,3,9.07,3.58,8.89,1.41,15.04,8,20.61,14.67,5.82,6.98,10.57,14.95,18.93,19.44,5.9,4.86,12.29,8.68,20.16,9.22,1.54.15,2.1-1.08,2.86-2.05,1.1-1.73,2.3-3.38,3.84-4.73,5.42-4.76,9.81-3.59,13.62,2.36,7.18,11.21,15.47,21.44,28.64,26.27,5.15,1.89,8.56,5.54,9.22,11.1.44,3.71-.19,7.22-4.84,8.09Z"/>
      <path class="cls-82" d="M501.81,446.75c-2.02.49-4.03.99-6.05,1.48-1.08.36-3-1.13-3.11,1.4-6.18,2.59-10.03-2.38-13.53-5.37-6.05-5.16-10.55-6.94-17.77-1.42-7.1,5.43-15.74,8.84-23.71,13.13-2.91-.79-4.53,1.75-6.79,2.66-1.64.66-4.74,1.57-4.69.6.19-4.24-1.89-1.88-3.24-1.45-2.64.86-5.37,1.36-8.01,2.17-2.06.51-4.13.92-6.25,1.08-2.62-.66-5.22-1.4-7.79-2.27-.13-.58-.25-1.16-.38-1.74.7-6.87,5.94-9.78,11.38-11.42,5.46-1.65,10.86-3.61,16.44-4.89,6.18-.25,5.81-7.8,10.65-9.54,1.7-.97,3.29-2.06,4.35-3.77,1.56-1.71,2.62-3.69,3.19-5.93,1.92-1.78,4.06-1.15,6.19-.54.75,4.15,2,8.14,3.5,12.07.04.09.43.13.61.06.23-.08.4-.29.6-.45,5.34-6.4,12.83-9.89,19.57-14.38,7.14-4.75,12.49-11.04,16.22-18.73,4.47-5.66,9.17-11.15,13.32-17.03,3.75-5.32,8.18-6.42,13.86-3.78.82,2.06,1.15,5.27,4.3,1.82,1.89-2.47,4.22-3.78,7.11-1.86,2.59,1.73,2.52,4.15,1.04,6.67-2.94,5,5.89,4.52,4.17,8.96-.21,1.82-.57,3.68,1.43,4.84,2.5,3.51,1.46,7.09.2,10.67-6.4,18.16-19.7,29.45-36.82,36.93Z"/>
      <path class="cls-2" d="M330.11,76.33c-7.53-4-10.04-11.86-7.11-19.5,4.47-11.63,13.88-18.78,22.74-26.51,2.64-2.36,5.42-4.45,9.21-4.44,3.03-.08,6.06-.16,9.1-.24,2.31-1.75,4.81-1.32,7.27-.51,14.45,4.77,28.45,4.3,41.9-3.36.89-.51,1.92-.62,2.95-.63,5.72,1.97,11.8,2.35,17.63,4.15,3.29,1.02,4.94,2.81,6.94,4.87,7.11,5.77,9.68,13.99,12.01,22.33.8,2.88.73,6.05,2.97,8.42,1,4.5-.83,7.54-4.84,9.48-4.71,4.75-8.6,10.41-14.87,13.43-2.88-3.93.11-6.6,2.08-9.43,4.9-7.07,4.52-11.57-1.79-17.24-4.78-4.31-10.45-7.22-16.32-9.71-5.05-2.14-8.64.8-12.29,3.81-6.05,4.99-8.17,12.8-13.52,18.27-2.64,1.17-5.42,1.01-8.2.87-1.18-.11-2.3-.43-3.34-.98-3.62-2.73-4.7-7.14-7.02-10.74-4.96-7.68-10.19-9.73-18.82-6.84-8.06,2.71-14.92,7.33-21.17,13.18-3.49,3.26-3.16,7.82-5.5,11.32Z"/>
      <path class="cls-43" d="M671.5,329.95c-2.42.39-4.89.67-6.14,3.26-.25.7-.74,1.14-1.46,1.33-1.86,1-3.03,2.44-3.04,4.65-2.12,3.35,1.38,8.19-2.91,10.96l-.03.03c-1.64,2.29-.25,5.88-3.25,7.59-2.26,4,.34,7.53,1.87,10.55,5.35,10.53,9.66,21.45,13.55,32.57,1.06,1.99.94,3.26-1.79,2.95-4.9-4.85-7.9-11.04-10.6-17.11-8.21-18.45-21.77-28.41-42.15-28.99-5.8-.17-11.58-1.18-17.37-1.81-.1-.5-.07-1.07-.31-1.48-1.93-3.18-7.37-5.2-6.31-8.76,1.13-3.8,6.39-.68,9.56-1.94,1.53-.61,3.92-.69,3.76-3.03-.12-1.7-2.04-2.17-3.45-2.47-1.72-.36-3.53-.34-5.3-.37-3.25-.05-6.42.19-4.83-4.92,1.06-3.4-2.48-2.16-3.87-3.11-.15-.1-.19-.49-.14-.7.06-.23.29-.41.44-.61,15.73.85,31.44,2.13,47.22,1.79,5.48.87,10.95,1.54,16.36-.38,4.98-1.71,10.16-1.32,15.28-1.49,1.78,0,4.21-2.16,4.89,1.47Z"/>
      <path class="cls-43" d="M97.59,339.51c-8.34-.48-7.64-9.28-12.2-13.24,23.16-5.28,47.01-5.11,70.38-8.8.67,1.59,1.19,3.27,2.04,4.76,1.79,3.13,1,4.8-2.6,4.9-2.37.07-4.42.92-6.34,2.18-1.33.87-2.27,2.11-1.68,3.8.64,1.84,2.32,1.81,3.78,1.47,3.17-.74,6.25-1.97,9.45-2.46,2.53-.38,5.82-1.77,7.36,1.62,1.25,2.76-.88,4.73-2.75,6.46-.91.84-1.99,1.51-2.99,2.26-3.27,1.57-6.74.36-10.1.74-.2.02-.59-.29-.63-.24-.49.67.24.88.51,1.27-7.71,1.47-15.42,2.91-23.12,4.42-13.64,2.67-23.49,9.26-24.94,24.41-3.86-1.24-1.97-3.86-1.47-6.15v.02c1.87-7.38.46-14.88.8-22.32.17-3.66-2.97-4.15-5.51-5.11Z"/>
      <path class="cls-38" d="M416.16,21.15c-12.81,11.06-27.46,10.6-42.64,6.84-3.16-.78-6.32-1.56-9.47-2.34,4.39-10.46,11.84-18.24,21.26-24.29,1.51.41.21,4.42,3.41,2.65.96,1.4.38,3.59,2.23,4.56,2.72-2.28,1.69-5.68,2.67-8.57,6.62,8.09,17.87,11.1,22.55,21.15Z"/>
      <path class="cls-86" d="M746.93,406.88c-3.25-1.2-6.51-2.39-9.8-3.6.73-1.67,2.25-2.33,3.17-1.7,8.94,6.11,8.05-.56,7.85-6.02-.28-7.5,1.83-15,.02-22.49q-2.91-1.55-3.06,1.53c1.42,2.94,1.7,6.09,1.49,9.28-.33,4.94-2.27,7.36-7.39,4.51-1.42-.89-1.71-2.33-1.9-3.82.24-3.09-.06-6.71,4.92-5.49-1.1-2.67-4.4.41-5.66-2.06-.95-2.29-1.08-4.49.65-6.51,3.58-3.63,2.02-8.72,3.65-12.91,4.84,4.57,9.44,9.33,10.13,16.42.56,5.83,2.03,11.39,4.71,16.58,4.88,9.48,4.42,10.97-5.24,15.1-1.14.49-2.35.79-3.53,1.18Z"/>
      <path class="cls-52" d="M187.78,313.27c.7.3,2.26,1.18,1.51,1.29-6.96,1.02-13.94,3.74-21.04.74,6.51-.68,13.02-1.35,19.53-2.03Z"/>
      <path class="cls-33" d="M581.5,393.03c-5.35-2.63-11.52-.27-16.9-2.77,6.73-.65,13.44-1.24,19.99,1.24.67.25.93.26.15,1.31-.87.06-2.05.14-3.24.22Z"/>
      <path class="cls-35" d="M526.39,353.56c8.05-3.35,16.19-2.56,24.35-.5-8.12.17-16.23.33-24.35.5Z"/>
      <path class="cls-68" d="M354.95,25.88c-2.73,2.19-5.82,3.63-9.21,4.44-.03-.46-.04-.91-.03-1.37,2.34-1.69,1.12-4.22,1.5-6.38l.02-.02c3.04.02,5.26,1.96,7.72,3.32Z"/>
      <path class="cls-109" d="M302.86,14.94c-.02.49,0,.99.05,1.48-5.14-.51-10.09-2.27-15.35-2.15,5.17-.37,10.39-2.46,15.3.66Z"/>
      <path class="cls-75" d="M279.87,54.61q2.84-2.59,7.13-3.74c-.27,3.09-2.28,4.93-4.01,6.91-.04-2.04-1.09-3.09-3.12-3.17Z"/>
      <path class="cls-22" d="M651.32,329.96c-5.39,3.07-10.85,2.49-16.36.38,5.44-.89,10.89-.79,16.36-.38Z"/>
      <path class="cls-1" d="M268.34,39.01c-1.62,2.77-4.16,3.81-7.89,4.93,2.04-3.95,4.59-5.08,7.89-4.93Z"/>
      <path class="cls-105" d="M247.3,129.98c.32-3.23,1.42-6.13,4.71-9.66.46,5.19-2.94,7.07-4.71,9.66Z"/>
      <path class="cls-32" d="M506.41,493.82c5.08-2.17,10.16-2.17,15.24,0-5.08.44-10.16.85-15.24,0Z"/>
      <path class="cls-108" d="M489.55,45.69c.53-.57,1.07-1.15,1.6-1.72,2.61.55,5.26,1.03,6.78,4.24-3.41.39-5.92-.98-8.38-2.52Z"/>
      <path class="cls-30" d="M151.83,344.24c-1.14-.18-2.28-.35-3.42-.53.02-.41.03-.82.05-1.24,4.53,0,9.05,0,13.58,0-2.85,2.69-6.59.62-9.71,1.82,0,0-.5-.05-.5-.05Z"/>
      <path class="cls-73" d="M235.24,385.92c.39-1.05.07-2.78,1.96-2.48,1.22.19,2.42.79,2.61,2.27.27,2.06-1.17,2.46-2.75,2.68-.61-.82-1.22-1.65-1.83-2.47Z"/>
      <path class="cls-1" d="M261.5,71.7c.2,2.98-.59,5.39-4.14,6.66-.34-3.48.34-5.95,4.03-6.76,0,0,.12.1.12.1Z"/>
      <path class="cls-8" d="M102.3,366.91c.34,2.09-.65,4.49,1.47,6.15-.55,2.07-1.1,4.13-1.65,6.2-1.32.18-2.01-.21-1.54-1.68.37-3.59-.62-7.4,1.71-10.67Z"/>
      <path class="cls-78" d="M524.67,380.53c.14,2.53-1.63,4.3-3.55,3.79-3.61-.95-.25-3.72-.75-5.61,1.14,1.3,2.09,3.04,4.3,1.82Z"/>
      <path class="cls-107" d="M341.11,16.44c2.2,1.88,5.65,2.51,6.12,6.12,0,0-.02.02-.02.02-3.14-.06-4.75-2.17-6.14-4.57-.45-.36-.6-.71-.44-1.05.16-.34.31-.51.47-.51Z"/>
      <path class="cls-10" d="M668.32,403.84c1.28-.57,1.73-1.64,1.79-2.95,1.97,2.1,2.57,4.74,2.89,7.48-3.46.46-3.38-2.75-4.69-4.53Z"/>
      <path class="cls-29" d="M317.99,382.56c3.08,3.03,2.4,5.93-.29,8.77.1-2.92.19-5.85.29-8.77Z"/>
      <path class="cls-4" d="M274.38,358.54c-4.4.93-6.56,1.6-8.56-.91,2.62-2.53,4.39.32,8.56.91Z"/>
      <path class="cls-72" d="M10.46,415.89c-1.06,1.55,5.14,3.45-.23,4.78-1.72-1.68-2.07-3.3.23-4.78Z"/>
      <path class="cls-50" d="M295.2,357.73c1.01-1.43,2.36-1.75,3.85-.95,1.18.63,2.01,1.54.42,2.7-1.67.01-3.08-.6-4.26-1.75Z"/>
      <path class="cls-27" d="M180.45,345.34c3.15-1.96,6.24-2.25,9.21.35-3.07-.12-6.14-.24-9.21-.35Z"/>
      <path class="cls-36" d="M554.95,392.79c.46.12,1,.13,1.38.38.69.45.85,1.21-.17,1.23-2.33.03-4.83.83-6.86-1.11,1.88-.17,3.77-.34,5.65-.5Z"/>
      <path class="cls-61" d="M475.75,48.6c-2.37-1.58-4.86-3.16.12-4.54-.04,1.52-.08,3.03-.12,4.54Z"/>
      <path class="cls-15" d="M671.5,329.95c-1.28-1.66-3.25-1.01-4.89-1.47,2.25-1.06,4.5-2.46,6.65.18-.59.43-1.17.87-1.76,1.3Z"/>
      <path class="cls-110" d="M341.11,16.44c0,.52-.02,1.05-.03,1.57-1.29-1.08-2.59-2.17-4.32-3.61,2.84-.95,3.56.61,4.35,2.05Z"/>
      <path class="cls-37" d="M220.13,398.8c-2.35,2.81-4.9,2.35-7.54.45,2.51-.15,5.03-.3,7.54-.45Z"/>
      <path class="cls-104" d="M388.72,4c-3.08,1.61-3.65,0-3.41-2.65,1.87-.06,3.75-.14,3.41,2.65Z"/>
      <path class="cls-3" d="M100.59,377.58c.51.56,1.02,1.11,1.54,1.67-.32,1.89-.97,3.57-2.77,4.56.08-2.14-.5-4.41,1.23-6.23Z"/>
      <path class="cls-54" d="M428.31,440.73c-2.28,3.6-6.19,4.84-9.81,5.12-8.13.65-13.54,4.99-18,11.18-6.49,3.77-11.48-.73-16.86-3.05,5.69-6.99,3.55-15.07-5.43-17.49-7.11-1.92-12.55-5.11-15.96-11.7-1.05-2.03-2.71-3.66-5.09-4.36-4.1-1.2-5.89-4.35-7.26-8.15-3.54-9.74-7.33-10.27-14.03-2.16-.8.97-1.51,2.03-2.26,3.05-2.94.59-1.97-2.32-3.05-3.4-.66-8.03-1.42-16.04-1.94-24.08-.21-3.2-.81-7.15,4.72-6.11,1.68-.61,2.74-1.52,1.66-3.46-3.51-8.64-7.08-17.26-10.5-25.94-2.25-5.73-2.44-11.69-1.78-18.35,7.43,2.62,8.08,9.8,11.75,14.51,1.5,1.92.88,5.95,5.1,5.21.85.64,1.62,1.35,1.86,2.46.16-1.46-1.19-1.67-1.95-2.36-1.26-18.97-6.9-36.96-12.39-54.98.36-1.7.04-3.67,1.81-4.84,3.93,3.11,7.87,6.22,11.69,9.24,2.12-1.27.89-2.42.38-3.34-11.02-19.8-16.34-41.59-22.04-63.23-1.61-6.13-2.31-12.49-1.39-18.88,7.08,6.83,12.39,15.27,20.02,21.62,2.25,1.87,5,3.72,5.1,7.25,2.55.05,5.07,7.99,7.64.02,3.61.47,4.05,3.33,4.6,6.11,1.75,1.88,2.99,4.14,4.57,6.14,11.38,7.94,6.91,20.6,8.98,31.21,1.17,5.97.21,12.36.21,18.83,4.47-1.65,2.57-7.37,7.18-9.25.73,18.91-6.6,37.93,2.31,56.41,1.1-27.54,21.04-48.94,23.09-76.51,7.17,3.56,4.66,10.36,7.36,15.09,1.77-6.85,2.08-13.7.54-20.51-1.13-4.98-1.07-9.45,2.29-13.66,6.71-8.42,11.69-18.22,20.52-25.75,1.72,5.34-3.34,8.87-2.89,14.19,5.71-3.07,5.17-10.53,10.74-13.86.39,4.2-2.13,7.09-3.53,10.24,2.9,1.5,3.58-.51,4.4-1.93,5.55-9.62,13.3-18.04,16.64-28.85,2.07-6.69,6.89-10.38,12.33-13.78,1.42,29.78-5.69,56.96-20.83,83.03-7.87,13.54-10.5,30.13-15.41,45.37-.14.44.71,1.21,1.1,1.82,1.16.87,2.62,1.42,3.17,2.95-4.67,20.88-9.33,41.77-14,62.65.05.94.1,1.88.43,2.73,1.42.76,1.89-.58,2.68-1.21.96-1,1.92-2,2.87-3.01.58-3.47,2.87-2.45,4.99-1.9,2.88,2.4,2.38,5.41,1.54,8.49.24.38.22.74-.07,1.08-1.44,1.22-2.85,2.46-3.57,4.28-.67,2.4-1.12,4.83-1.07,7.4.59-1.43.86-3.12,3.02-2.51-.14,10.69-2.23,20.98-6.16,30.92Z"/>
      <path class="cls-82" d="M424.69,153c-.29,12.05-5.69,23.13-6.49,35.13-.5,7.58-1.54,15.21-4.24,22.43-.6,1.6-.5,2.97.53,4.28,5.32,6.78,1,10.8-4.33,14.12-9.44,5.87-19.96,8.95-30.87,10.49-6.53.92-11.18-2.72-14.76-7.73-5.22-7.3-9.38-15.1-11.28-24-3.5-16.4-7.14-32.77-10.72-49.15.53-.5,1.15-.82,1.86-.97,1.85-.2,3.49.49,5.13,1.19,1.61.71,3.27,1.3,4.82,2.15,3.91,2.58,5.03,7.59,9.1,10.54,1.94-1.95.52-6.12,4.06-6.63,3.19-.46,5.02,2.15,7.07,3.93,4.26,3.7,7.79,8.1,10.4,13.07,2.3,4.38,4.05,5.72,6.94.41,2.19-4.01,5.21-7.53,8.24-10.98,1.01-1.15,2.11-3.23,3.21-3.09,7.49.94,8.53-5.59,11.69-9.65,3.3-1.69,5.25-5.74,9.64-5.54Z"/>
      <path class="cls-47" d="M394.34,68.15c2.99-7.71,7.46-14.45,13.65-19.93,4.09-3.62,8.61-5.01,13.95-2.22,6.09,3.19,12.28,6.16,17.19,11.13,5.93,6,6.32,11.91.79,18.02-2.33,2.58-4.22,5.04-3.91,8.66-2,5.45-3.29,10.97-1.63,16.78-1.97,1.72-5.06,1.01-6.84,3.18-16.78,9.16-24.48,8.56-37.21-2.88-1.55-6.45-1.07-12.93-.35-19.42,1.46-4.44,1.2-9.44,4.36-13.32Z"/>
      <path class="cls-47" d="M330.11,76.33c-1.56-4.96.29-8.66,3.78-12.26,5.99-6.18,13.04-10.61,20.94-13.71,10.43-4.08,16.63-1.96,22.59,7.71,1.98,3.22,3.42,6.77,5.11,10.16,1.09,1.4,2.53,2.57,2.96,4.42.91,8.37.99,16.74-.08,25.1-10.24,12.71-24.65,14.47-39.19,4.96-3.71-2.42-6.58-6.6-11.8-6.17-1.88-.85-1.98-2.19-1.07-3.82,2.14-6.1-1.43-11.08-3.24-16.4Z"/>
      <path class="cls-18" d="M437.33,123.15c-.79.71-1.58,1.42-2.36,2.14-9.6,6.37-20.61,9.5-31.22,13.57-4.83-.93-6.73-4.36-7.48-8.77.2-4.77,4.02-6.04,7.47-7.59,5.59-2.52,11.63-3.4,17.55-4.78,3.18-.74,6.02-2.64,8.35-5.08,1.44-1.25,2.83-2.59,4.84-2.86,4.51,3.65,3.54,8.49,2.88,13.26l-.03.11Z"/>
      <path class="cls-80" d="M298.74,77.66c-1.3-8.08-5.42-14.84-5.07-22.69.32-7.14,4.96-9.88,11.47-6.82,11.33,5.3,12.64,12.08,3.98,21.16-2.78,2.92-5.47,6.04-10.39,8.35Z"/>
      <path class="cls-79" d="M450.87,70.39c1.61-3.16,3.23-6.32,4.84-9.48,5.14-2.43,11.34-7.23,15.8-2.08,4.62,5.35-.96,11.42-3.9,16.46-1.48,2.53-3.61,4.71-4.5,8.11-5.78-2.97-7.55-9.42-12.25-13.01Z"/>
      <path class="cls-18" d="M336.45,138.93c0-.97,0-1.94-.01-2.91-.27-.43-.62-.87-.69-1.36-.37-2.61-3.32-5.52-.54-7.73,2.5-1.99,5.34.39,7.74,1.6,6.17,3.1,13.1,4.26,19.12,7.72,1.77,1.02,3.84,1.5,4.34,3.87-.95,5.55-4.82,7.91-9.85,9.01-7.25-2.32-13.9-5.84-20.11-10.21Z"/>
      <path class="cls-40" d="M365.65,140.77c-1.14-4.07-5.39-3.57-8.02-4.55-7.27-2.71-14.53-5.49-21.84-8.82.24,3.22.45,5.92.65,8.62-5.44-3.56-5.4-8.59-3.78-14.05.98-.74,2.05-.75,3.17-.39,11.45,5.69,23.36,10.03,35.95,12.48.41,4.48-2.06,6.33-6.13,6.71Z"/>
      <path class="cls-42" d="M403.49,137.5c8.84-3.66,17.73-7.2,26.46-11.1,1.72-.77,3.23-1.25,5.02-1.11-.41,2.67.92,5.7-1.61,7.94-.68-.09-1.33-.27-1.96-.51-9.01,1.48-16.85,5.95-24.93,9.8-2.61-.71-4.1-2.09-2.97-5.01Z"/>
      <path class="cls-7" d="M335.01,122.06c-.79-.03-1.57-.06-2.35-.09-4.34-4.83-5.47-10.37-2.29-16.02,2.39-4.24.67-9.14,2.99-13.22.17,1.28.29,2.59,1.62,3.31,4.09,3.21,2.02,7.93,2.96,11.92-.15.72-.43,1.39-.8,2.02-5.4,3.2.5,8.39-2.11,12.08Z"/>
      <path class="cls-12" d="M344.12,158.49c-.53.03-1.06.05-1.59.07-1.51-2.98-3.02-5.95-4.53-8.92,1.62-7.31,2.36-7.76,8.8-4.66,2.68,1.29,5.84,2,7.32,5.07.21.73.27,1.48.22,2.23-.6,2.54-1.21,5.07-3.44,6.78-.67.3-1.37.35-2.08.18-1.09-.83-2.17-1.69-2.11-3.23-.05-.48.7-.99.03-1.53,0,.42-.13.8-.41,1.19-.42,1.22-1.24,2.07-2.21,2.81Z"/>
      <path class="cls-44" d="M353.55,151.6c-2.15-4.78-7.5-4.62-11.25-6.77-2.99-1.71-1.83,3.98-4.3,4.82-2.13-3.34-1.94-7.02-1.55-10.72,7.81.91,13.59,6.27,20.44,9.29.58,2.8-.47,3.99-3.34,3.39Z"/>
      <path class="cls-6" d="M428.45,146.86c-1.12,1.41-2.24,2.82-3.35,4.22-1.79-3.09-3.84-3.37-6.53-.92-1.07.97-2.58,1.64-4.23,1.4-2.07-1.17-3.76-2.55-2.98-5.31,3.89-2.7,7.55-5.72,11.4-8.48,2.15-1.54,4.19-3.85,7.34-2.16.57,1.11.68,2.16-.33,3.1l-.1.17c-1.44,2.5.22,5.48-1.23,7.97Z"/>
      <path class="cls-97" d="M414.7,151.16c3.22-3.22,7.94-4.54,10.19-9.11,3.23,3.58-3,6.16.21,9.03-.13.64-.27,1.28-.4,1.92-3.01,1.54-4.5,5.37-8.4,5.56-2.31-2.08-2.87-4.54-1.6-7.39Z"/>
      <path class="cls-14" d="M434.48,109.79c-1.01,1.04-2.02,2.07-3.04,3.11-1.13-.15-1.94-.78-2.56-1.7-1.77-2.92-.11-6.08-.63-9.1.9-5.13,4.12-.81,6.11-1.5.04,3.06.08,6.13.11,9.19Z"/>
      <path class="cls-55" d="M483.22,131.7c-1.24-1.16-2.57-2.15-4.37-2.17-.9-.96-.95-1.92,0-2.88.28-2.07.97-3.41,3.3-1.89,2.93,1.91,2.72,4.31,1.08,6.93Z"/>
      <path class="cls-20" d="M495.05,110.98c-2.33-.88-4.66-1.77-6.99-2.65,2.95-1.01,5.9-2.02,9.25-3.17-.92,2.38-1.59,4.1-2.26,5.81Z"/>
      <path class="cls-65" d="M494.3,141.54c2.03,5.53,2.71,11.11.73,16.81-.01.03-.38,0-.53-.09-.21-.13-.38-.33-.56-.5-1.31-2.57.4-5.61-1.29-8.12-.3-.29-.4-.63-.31-1.03,1.24-2.19,1.95-4.53,1.96-7.06Z"/>
      <path class="cls-60" d="M478.84,126.66c0,.96,0,1.92,0,2.88-1.59,1.9-3.15,1.27-4.7-.07-.71-1.55-1.95-3.11-.05-4.68,2.68-2.21,3.13,1.33,4.74,1.87Z"/>
      <path class="cls-58" d="M350.3,244.52c-.35,1.82.95,4.86-1.31,5.19-3.26.47-4.71-2.82-6.33-5.21,2.55-1.38,5.08,3.92,7.64.02Z"/>
      <path class="cls-90" d="M470.26,176.48c3.67,2.29,2.2,5.37,2.23,8.92-3.21-2.82-3.12-5.58-2.23-8.92Z"/>
      <path class="cls-48" d="M279.83,120.52c-1.85-1.25-1.35-3.28-1.68-5.04,1.06-1.43,2.11-2.85,3.17-4.28,1.42-.36,2.06.07,1.64,1.6-.95,2.61-3.4,4.61-3.13,7.72Z"/>
      <path class="cls-24" d="M483.53,108.15c-1.59.53-3.18,1.07-4.77,1.6-1.26-1.11-2.63-2.15-2.52-4.75,2.58,1.11,4.94,2.13,7.3,3.15Z"/>
      <path class="cls-57" d="M359.47,256.76c-2.45-1.36-4.48-3.03-4.57-6.14,3.62.49,4.06,3.34,4.57,6.14Z"/>
      <path class="cls-13" d="M429.78,138.71c.02-.98.04-1.95.05-2.93-1.13-1.53-1.53-3.23.19-4.4,1.18-.81,2.18.32,2.9,1.35,0,0,.42.5.42.5-.7,2.15-1.78,4.05-3.57,5.49Z"/>
      <path class="cls-56" d="M284.93,178.91c1.41,1.74,1.22,3.65.7,5.68-2.46-1.66-.24-3.8-.7-5.68Z"/>
      <path class="cls-88" d="M437.36,123.05c1.58,1.55,2.13,3.32,1.09,5.81-3.15-1.47-.17-4.05-1.13-5.7,0,0,.03-.11.03-.11Z"/>
      <path class="cls-9" d="M282.96,112.8c-.55-.53-1.1-1.07-1.64-1.6.9-1.4,2.01-3.79,3.65-2.31,1.41,1.28-.86,2.77-2.01,3.91Z"/>
      <path class="cls-13" d="M428.45,146.86c.17-2.7-1.06-5.61,1.23-7.97-.22,2.69.95,5.59-1.23,7.97Z"/>
      <path class="cls-89" d="M328.9,291.85c-.09,1.81.18,3.75-1.81,4.84-2.03-1.77-1.62-3.93-.44-5.77.5-.78,1.74-.06,2.25.93Z"/>
      <path class="cls-100" d="M330.56,409.78c1.01,1.13,2.03,2.26,3.04,3.39-.46.72-.83,1.98-1.4,2.07-1.56.26-1.57-1.26-1.9-2.31.08-1.05.17-2.1.25-3.15Z"/>
      <path class="cls-19" d="M335,376.14c1.51,1.68,2.76,3.69.75,5.48-.87.78-1.87-.96-2.41-2.03.55-1.15,1.1-2.3,1.66-3.46Z"/>
      <path class="cls-64" d="M434.47,409.81c-2.6,1.33-.44,5.16-4.11,6.68-.37-4.52-1.81-8.71,1.05-12.8,4.01-1.44,3.98.77,3.27,3.61-.07.84-.13,1.68-.2,2.51Z"/>
      <path class="cls-81" d="M457.39,432.63c-3.42-.55-6.37-7.87-4.71-11.69,5.18,2.44.71,8.77,4.71,11.69Z"/>
      <path class="cls-45" d="M434.23,391.02c-1.75.15-3.64-.06-4.6,1.96-2.12-.54-4.33-2.18-1.5-3.41,2.48-1.08,2.7-3.06,4.09-4.61.57,1.71,1.09,3.29,1.61,4.87.59.1.84.31.76.63-.09.37-.22.56-.37.56Z"/>
      <path class="cls-69" d="M434.23,391.02c-.03-.43-.16-.82-.39-1.19,7.8,1.56,2.45,6.27,2.32,9.73-.1-2.97-.26-5.93-1.93-8.54Z"/>
      <path class="cls-69" d="M434.67,407.3c-.24-1.97-.94-3.52-3.27-3.61.16-3.17,2.45-3.06,4.68-3.05.15,2.35-.08,4.62-1.42,6.65Z"/>
      <path class="cls-67" d="M437.65,331.8c-1.91-.07-3.1-.91-3.17-2.95,1.32-.12,2.44-2.12,3.77-.81,1.23,1.21.28,2.61-.61,3.76Z"/>
      <path class="cls-92" d="M443.67,428.18c-.91,2.04-2.41,3.15-4.71,3.01,1.58-1.98,3.16-3.97,4.74-5.95.92.99.79,1.97-.03,2.94Z"/>
      <path class="cls-69" d="M426.76,395.98c.02,2.02-.57,4.09-2.22,5.03-1.09.63-1.88-1-2.2-2.21.84-1.08,1.46-2.47,3.2-2.31.43-.11.84-.28,1.22-.51Z"/>
      <path class="cls-81" d="M443.67,428.18c.01-.98.02-1.96.03-2.94.93-1.25,1.86-2.49,2.79-3.74.4,2.79.2,5.34-2.82,6.68Z"/>
      <path class="cls-46" d="M479.46,141.38c-.14-1.1.15-1.89,1-1.72.49.09.97.94,1.19,1.54.11.31-.38.83-.59,1.26-.58-.39-1.16-.78-1.59-1.07Z"/>
      <path class="cls-94" d="M492.65,149.63c2.48,2.38,1.28,5.35,1.29,8.12-1.39-2.55-1.19-5.36-1.29-8.12Z"/>
      <path class="cls-51" d="M425.54,396.49c-.56,1.47-1.79,2.01-3.2,2.31-.05-1.59-.03-3.17,1.31-4.35.63.68,1.26,1.36,1.89,2.04Z"/>
      <path class="cls-25" d="M308.96,428.29c2.04-.04,4.08-.09,6.12-.13-.5,1.03-1.01,2.06-1.51,3.09-2.18.02-4.4.1-4.61-2.95Z"/>
      <path class="cls-85" d="M271.98,414.52c2.69.18,5.66-1.14,7.91,1.44-2.72-.04-5.52.41-7.91-1.44Z"/>
      <path class="cls-31" d="M240.15,407.84c.31.63.87,1.25.87,1.87,0,.86-.87,1.31-1.52.78-.46-.38-.55-1.3-.63-1.99-.02-.14.71-.38,1.27-.66Z"/>
      <path class="cls-28" d="M538.63,409.82c-.07-3.56-.14-7.12-.2-10.67,5.5,3.45,3.07,7.06.2,10.67Z"/>
      <path class="cls-23" d="M530.52,430.96c1.53-.39,1.7.39,1.67,1.15-.04,1.12-.7,1.84-1.82,1.99-.8.11-1.7-.14-1.36-1.11.3-.86,1.12-1.54,1.51-2.03Z"/>
      <path class="cls-106" d="M54.44,382.51c.16,10.71-2.9,18.8-6.8,26.49-2.72,5.35-8.06,7.75-13.84,7.97-5.88.22-8.22-3.65-7.29-9.06.75-4.32,1.68-8.43-.38-12.65-.48-.98-.41-3.28.11-3.54,6.78-3.34,6.65-9.91,8.43-15.94,1.48-5,5.61-8.24,11.82-7.35,5.95.86,7.02,5.07,7.61,9.82.25,2.01.32,4.05.33,4.26Z"/>
      <path class="cls-8" d="M97.59,339.51c2.66-.2,5.86.07,5.91,3.13.12,8.1,2.13,16.36-1.22,24.29.08-5.82-.13-11.67.34-17.46.37-4.59-.98-7.84-5.03-9.96Z"/>
      <path class="cls-91" d="M87.57,394.97c3.36,2.7,2.36,5.04,2.27,7.91-2.68-2.36-3-4.57-2.27-7.91Z"/>
      <path class="cls-87" d="M41.28,357.83c3.47-.15,6.04,1,7.47,5.96-3.17-2.49-5.36-4.21-7.54-5.93,0,0,.07-.04.07-.04Z"/>
      <path class="cls-106" d="M737.23,370.51c.09,2.39.18,4.78.27,7.16,1.62,1.99.03,4.63,1.34,6.68.12,1.35.25,2.69.37,4.04-1.81,8.71-10.33,12.41-17.73,7.9-7.56-4.61-10.43-12.95-15.84-19.26-1.96-.5-.86-2.61-1.91-3.6-2.03-1.79-.46-4.53-1.7-6.53-.89-2.53-.99-5.05.08-7.56,5.64-4.3,10.88-4.21,16.27.79,3.92,3.63,8.55,6.45,14.09,6.97,2.4.23,3.45,1.88,4.76,3.4Z"/>
      <path class="cls-63" d="M702.27,377.67c-.2,3.2.09,6.38.47,9.56-1.04-3.65-5.76-7.15-.48-11.07.35.33.47.67.36,1.01-.11.34-.23.51-.35.51Z"/>
      <path class="cls-62" d="M654.68,357.78c-.12-3.04.89-5.6,3.25-7.59.5,1.51,1,3.02,1.49,4.52-1.04.76-.46,2.32-1.53,3.06-1.07,0-2.14,0-3.21,0Z"/>
      <path class="cls-76" d="M702.11,359.35c-.03,2.52-.05,5.04-.08,7.56-4.79-2.57-3.29-5.08.08-7.56Z"/>
      <path class="cls-76" d="M702.27,377.67c0-.5,0-1.01-.01-1.51.49-.91.98-1.81,1.47-2.72,1.87.54,1.66,2.19,1.91,3.6-.2,1.25-.39,2.49-.59,3.74-.93-1.03-1.85-2.07-2.78-3.1Z"/>
      <path class="cls-62" d="M657.96,350.16c2.8-3.17.12-7.79,2.91-10.96-.84,3.69,2.58,8.51-2.91,10.96Z"/>
      <path class="cls-95" d="M745.12,374.6c-2.48-2.37-.52-4.74,1.15-5.16,2.58-.64,1.56,2.19,1.91,3.63-1.25.04-2.4.31-3.06,1.53Z"/>
      <path class="cls-83" d="M726.88,345.4c-2.08,2.3-4.48,3.69-8.22,2.65,2.76-1.87,5.41-2.55,8.26-2.62,0,0-.03-.03-.03-.03Z"/>
      <path class="cls-84" d="M663.9,334.54c.49-.44.97-.89,1.46-1.33.87.19,2.21,0,2.13,1.25-.08,1.24-1.12,2.26-2.39,2.26-.4,0-.8-1.41-1.2-2.18Z"/>
      <path class="cls-66" d="M657.89,357.78c.03-1.26.31-2.4,1.53-3.06v6.46c-2.05-.98-1.29-2.35-1.53-3.4Z"/>
      <path class="cls-74" d="M400.88,458.78c3.12-2.4,5.51-1.17,7.59,1.55,3.46-1.76,7.32.1,10.84-1.12-1.63.51-3.23.68-4.73-.41,4.33-.58,8.42-6.77,13.2-.29.66.89,3.62-1.07,5-2.58,1.71-1.88,3.28-2.19,4.89.05-9.73,6.15-19.73,11.08-31.74,7.2-2.35-.76-5.18-.84-5.03-4.4Z"/>
      <path class="cls-53" d="M492.65,449.63c-.67-.3-2.49-.1-1.56-1.21,1.06-1.28,3.03-2.72,4.67-.19-1.04.47-2.07.93-3.11,1.4Z"/>
      <path class="cls-93" d="M250.38,405.01c5.07-1.32,5.95,4.92,10.29,4.97.26,0,.52.58.77.89-.72.15-1.44.4-2.17.43-4.54.18-5.13-5.24-8.89-6.29Z"/>
      <path class="cls-77" d="M414.56,458.79h5.82c.02.51.04,1.02.06,1.53-4,0-7.99,0-11.99,0,1.6-2.24,4-1.3,6.1-1.53Z"/>
      <path class="cls-101" d="M394.34,68.15c.08,4.49-.96,8.75-2.57,12.9-2.39-1.66-1.75-4.61-2.93-6.78-.34-2.38-4.18-2.77-3.36-5.82,2.96-.1,5.91-.2,8.87-.3Z"/>
      <path class="cls-103" d="M385.47,68.45c1.02,2.06,4.89,1.27,4.61,4.62.98,1.83,1.42,3.57-.74,4.92-3.38-.75-2.81-5.12-5.75-6.29-.35-1.16-.71-2.31-1.06-3.47.98.07,1.96.14,2.94.22Z"/>
      <path class="cls-82" d="M738.84,384.35c-1.38-2.04-1.51-4.33-1.34-6.68,1.63-.06,2.67-3.41,4.36-1.39,1.96,2.34,2.91,5.32.06,8-2.52-.86-.22-3.13-1.17-4.46-2.57.96-1.42,3.06-1.92,4.54Z"/>
      <path class="cls-5" d="M339.49,351.67c4.39.98,2.9,4.04,3.09,7.11-4.65-1.57-1.44-5.19-3-7.21,0,0-.09.09-.09.09Z"/>
      <path class="cls-70" d="M414.7,151.16c1.06,2.35,1.74,4.78,1.6,7.39-1.27,2.74-3.17,5.21-3.33,8.42-.08,1.6-1.08,3.75-2.41,3.39-12.68-3.43-11.98,9.71-18.04,14.4-1.41,1.1-.55,4.51-3.4,4.35-2.86-.16-4.15-2.41-5.15-4.91-2.81-7-8.19-11.97-13.66-16.84-.9-.8-1.78-2.11-3.21-1.21-1.21.76-1.35,2.03-.77,3.34.91,2.06,1.07,4.24-1.22,5.26-3.13,1.39-3.6-1.77-4.88-3.44-2.43-3.2-4.85-6.42-7.27-9.63-.71-1-1.04-2.1-.87-3.34.79-1.8-.04-3.95,1.24-5.64.16-.35.23-.71.2-1.09,1.72-.53,2.81-1.68,3.34-3.39,3.4-1.92,6.7-3.95,8.76-7.44,2.19-2.09,4.37-4.17,6.56-6.26.3-.64.73-1.16,1.28-1.6,2.96-1.4,3.91-4.6,6.06-6.73,1.31-.72,2.62-.86,3.86-.05.44.13.71.45.75.9.17-.82-.94-.74-1.02-1.45-.73-4.38.91-8.83-.68-13.13-.08-1.25.03-2.47.29-3.69,1.55-7.61,2.25-15.3,2.2-23.05,4.45-.75,3.73,2.9,3.99,5.13.56,4.95.33,9.97.18,14.95-.09,3.21.78,5.86,3.06,8.07,1.24,2.2,1.44,4.49.59,6.85-.4.62-.85,1.2-1.57,1.5-.25.1-.57-.08-.83.08.51.21.96.12,1.41-.3,2.11-.39,2.82,1.32,3.88,2.5,1.48,1.57.95,3.84,1.95,5.59,1.2,3.08,2.54,6.05,5.87,7.45.43,2.03,1.53,3.54,3.44,4.43,2.45.62,3.95,2.13,4.32,4.67,1.15,1.52,2.3,3.04,3.45,4.56Z"/>
      <path class="cls-21" d="M344.12,158.49c.08-1.18.42-2.22,1.58-2.78.52-.5,1.02-.51,1.49.06.53,1.01,1.05,2.01,1.58,3.02.54.32.72.64.53.95-.18.31-.36.47-.55.47-1.54-.57-3.09-1.14-4.63-1.71Z"/>
      <path class="cls-26" d="M348.76,160.21c.01-.47.02-.94.01-1.42.53-.03,1.06-.07,1.58-.1.87-.74,1.71-.76,2.51.12.04.96.08,1.91.12,2.87-1.41-.49-2.82-.98-4.23-1.46Z"/>
      <path class="cls-17" d="M394.67,124.98c-.96-1.03-1.92-2.06-2.88-3.09l-.02.07c-.03-2.51-.06-5.02-.09-7.53-2.5-4.05-3.32-8.11-.09-12.21,1.15-.4,2.37-1.35,3.5-.27,9.2,8.77,18.89,7.79,28.96,1.67,1.25-.76,2.81-1.02,4.22-1.52,4.32,2.42-.24,6.38,1.6,9.24-2.14,4.65-6.74,6.27-10.91,7.04-7.18,1.33-14.16,2.83-20.58,6.44-1.1.62-2.45.31-3.7.16Z"/>
      <path class="cls-71" d="M391.59,102.22c.03,4.07.06,8.14.09,12.21-3.17-.69-4.79-1.89-4.85-5.9-.12-7.72,1.86-15.62-1.22-23.2-1.49-3.51-1.8-6.56,2.95-7.66,1.8-1.11,1.46-2.92,1.53-4.6,2.61,2.23,1.03,5.34,1.68,7.97-.06,7.06-.12,14.12-.18,21.17Z"/>
      <path class="cls-98" d="M383.99,109.81c-.07.93-.13,1.86-.2,2.79-.24,4.21.49,8.77-4.13,11.39-10.59-3.05-21.17-6.18-32.02-8.3-4.56-.89-8.21-3.75-11.11-7.42-.52-4.08-1.04-8.15-1.56-12.23,1.41-5.23,3.4-1.56,5.08-.27,7.84,6.04,15.72,11.42,26.45,11.17,7.23-.17,11.37-5.99,17.55-7.75.99,3.55,1.09,7.09-.05,10.62Z"/>
      <path class="cls-101" d="M383.99,109.81c.02-3.54.04-7.08.05-10.63.2-9.16.63-18.33-.45-27.48,4.26-.18,5.06,2.52,4.96,5.97-.76,2.64-4.43,4.16-2.95,7.66-1.05,8.12,1.72,16.5-1.61,24.47Z"/>
      <path class="cls-39" d="M338.74,79.96c3.08,2.19,2.48,4.59,1.89,7.23-2.4-1.8-2.97-3.91-1.89-7.23Z"/>
      <path class="cls-41" d="M394.67,124.98c10.23-8.42,24.69-5.92,35.2-13.64.53.52,1.05,1.04,1.58,1.56-3.29,4.99-8.3,6.55-13.87,7.77-7.26,1.59-15.55,1.53-19.96,9.39-.98-1.69-1.97-3.38-2.95-5.08Z"/>
      <path class="cls-98" d="M373.47,134.36c-.42.08-.84.13-1.26.15-13.81.07-25.9-4.98-37.19-12.44-.86-2.26-1.78-4.5-2.55-6.79-1.25-3.69-.04-5.67,4.05-5.45,7.92,5.03,16.4,8.34,25.87,9.06,5.08.39,9.62,2.54,13.85,5.35,2.36,3.27-.18,5.67-1.49,8.29-.4.63-.82,1.24-1.26,1.83Z"/>
      <path class="cls-99" d="M411.25,146.6c-1.9-1.13-3.38-2.65-4.32-4.67,5.97-8.01,16.16-7.54,23.99-11.84,1.16-.64,1.79,1.36,2.01,2.64-3.6-1.58-3,1.08-3.1,3.05-4.68,1.29-7.9,4.8-11.39,7.79-2.18,1.86-4.24,3.32-7.2,3.03Z"/>
      <path class="cls-34" d="M376.29,125.14c-9.44-5.74-21.18-3.51-30.77-8.95-3.26-1.85-6.81-3.1-9.01-6.37,0-.52,0-1.03.01-1.55,5.98,1.99,10.77,7.16,17.29,7.37,6.19.2,11.84,1.97,17.48,4.01,2.79,1.01,5.38,2.57,8.05,3.88.41.68.39,1.36-.05,2.02-1.1.59-2.11.46-3.01-.41Z"/>
      <path class="cls-16" d="M347.19,155.77c-.5-.02-.99-.04-1.49-.06.06-2.26-.17-4.66,3.25-5.78.39,2.39.09,4.28-1.76,5.84Z"/>
      <path class="cls-16" d="M352.86,158.8c-.84-.04-1.67-.08-2.51-.12,1-2,1.99-4,2.99-5.99-.16,2.04-.32,4.07-.48,6.11Z"/>
      <path class="cls-71" d="M379.01,125.13c.11-.53.23-1.06.34-1.6,2.87-3.08,2.3-7.55,4.44-10.93,3.53,4.63.28,9.36.18,14.04l-.02.03c-1.51.02-3.02.04-4.53.05-.22-.23-.43-.46-.65-.68.08-.3.16-.61.24-.91Z"/>
      <path class="cls-71" d="M383.97,126.64c1.51-.3,3.32-2.45,4.31.54.38,1.16.5,2.97-1.07,3.12-2.26.21-2.27-2.3-3.25-3.63,0,0,.02-.03.02-.03Z"/>
      <path class="cls-71" d="M373.47,134.36c0-.39-.03-.79-.07-1.18,1.57-2.53,2.59-5.54,5.8-6.64,0,0,.22.18.22.18.07,4.15-1.72,6.84-5.95,7.64Z"/>
      <path class="cls-102" d="M376.68,142.83c.19,1.43-.37,1.99-1.14,1.53-.74-.45-1.42-1.3-1.71-2.12-.26-.74.46-1.58,1.25-1.16.76.4,1.24,1.35,1.59,1.76Z"/>
      <path class="cls-71" d="M391.79,121.89q-2.57.19-2.67-3.09c.88,1.05,1.77,2.11,2.65,3.16,0,0,.02-.07.02-.07Z"/>
      <path class="cls-11" d="M379.2,126.54c-1.93,2.21-3.87,4.42-5.8,6.64-.73-3.29,3.21-4.9,2.89-8.04.91,0,1.82,0,2.72-.01.13.46.2.93.19,1.41Z"/>
    </g>
  </g>
</svg>